<svg width="390" height="47" viewBox="0 0 390 47" fill="none" xmlns="http://www.w3.org/2000/svg">
<path d="M41.8786 19.7231C39.2805 19.7231 37.4294 21.4995 37.4294 23.9316V23.9482C37.4294 26.2227 39.0397 27.8994 41.3391 27.8994C42.9826 27.8994 44.0285 27.061 44.4684 26.1147H44.6345C44.6345 26.2061 44.6262 26.2974 44.6262 26.3887C44.5349 28.6797 43.7297 30.5391 41.8288 30.5391C40.7746 30.5391 40.0358 29.9912 39.7204 29.1528L39.6955 29.0698H37.5871L37.6037 29.1611C37.9855 30.9956 39.6291 32.2988 41.8288 32.2988C44.842 32.2988 46.6599 29.9082 46.6599 25.874V25.8574C46.6599 21.541 44.4352 19.7231 41.8786 19.7231ZM41.8703 26.2559C40.509 26.2559 39.5212 25.2598 39.5212 23.8735V23.8569C39.5212 22.5205 40.5754 21.4663 41.8952 21.4663C43.2233 21.4663 44.2609 22.5371 44.2609 23.9067V23.9233C44.2609 25.2764 43.2233 26.2559 41.8703 26.2559ZM50.0204 24.2388C50.7841 24.2388 51.3402 23.6577 51.3402 22.9272C51.3402 22.1885 50.7841 21.6157 50.0204 21.6157C49.265 21.6157 48.7006 22.1885 48.7006 22.9272C48.7006 23.6577 49.265 24.2388 50.0204 24.2388ZM50.0204 30.3979C50.7841 30.3979 51.3402 29.8252 51.3402 29.0864C51.3402 28.3477 50.7841 27.7749 50.0204 27.7749C49.265 27.7749 48.7006 28.3477 48.7006 29.0864C48.7006 29.8252 49.265 30.3979 50.0204 30.3979ZM59.1915 32H61.2418V29.7007H62.8522V27.9326H61.2418V20.022H58.212C56.5851 22.4956 54.8834 25.2515 53.3312 27.9492V29.7007H59.1915V32ZM55.3233 27.9824V27.8579C56.4855 25.8242 57.8717 23.6079 59.1002 21.7319H59.2247V27.9824H55.3233ZM67.408 32H69.5496V20.022H67.4163L64.2869 22.2217V24.2388L67.2669 22.1304H67.408V32Z" fill="black"/>
<path fill-rule="evenodd" clip-rule="evenodd" d="M336 23C336 20.7909 337.791 19 340 19H357C359.209 19 361 20.7909 361 23V28C361 30.2091 359.209 32 357 32H340C337.791 32 336 30.2091 336 28V23Z" fill="black"/>
<path d="M362 24V28.2203C362.849 27.8629 363.401 27.0314 363.401 26.1102C363.401 25.1889 362.849 24.3574 362 24Z" fill="black"/>
<path d="M341.472 29H342.947V21.9541H341.477L339.656 23.2188V24.5469L341.384 23.3457H341.472V29ZM347.636 29.1807C349.379 29.1807 350.434 27.7549 350.434 25.4795V25.4697C350.434 23.1895 349.379 21.7734 347.636 21.7734C345.897 21.7734 344.838 23.1895 344.838 25.4697V25.4795C344.838 27.7549 345.897 29.1807 347.636 29.1807ZM347.636 28.0137C346.806 28.0137 346.332 27.0713 346.332 25.4795V25.4697C346.332 23.873 346.806 22.9404 347.636 22.9404C348.471 22.9404 348.944 23.873 348.944 25.4697V25.4795C348.944 27.0713 348.471 28.0137 347.636 28.0137ZM354.541 29.1807C356.285 29.1807 357.339 27.7549 357.339 25.4795V25.4697C357.339 23.1895 356.285 21.7734 354.541 21.7734C352.803 21.7734 351.744 23.1895 351.744 25.4697V25.4795C351.744 27.7549 352.803 29.1807 354.541 29.1807ZM354.541 28.0137C353.711 28.0137 353.238 27.0713 353.238 25.4795V25.4697C353.238 23.873 353.711 22.9404 354.541 22.9404C355.376 22.9404 355.85 23.873 355.85 25.4697V25.4795C355.85 27.0713 355.376 28.0137 354.541 28.0137Z" fill="white"/>
<path fill-rule="evenodd" clip-rule="evenodd" d="M320.5 22.5875C322.967 22.5876 325.339 23.5551 327.127 25.2898C327.261 25.4237 327.477 25.4221 327.609 25.286L328.896 23.9605C328.963 23.8915 329.001 23.798 329 23.7008C328.999 23.6035 328.961 23.5105 328.893 23.4423C324.201 18.8526 316.799 18.8526 312.107 23.4423C312.039 23.5105 312.001 23.6034 312 23.7007C311.999 23.7979 312.037 23.8914 312.104 23.9605L313.391 25.286C313.523 25.4223 313.739 25.424 313.873 25.2898C315.661 23.5549 318.034 22.5875 320.5 22.5875ZM320.536 26.5894C321.891 26.5893 323.198 27.1035 324.203 28.032C324.338 28.1638 324.552 28.1609 324.685 28.0255L325.97 26.7C326.038 26.6304 326.075 26.5361 326.074 26.4381C326.073 26.3401 326.034 26.2466 325.965 26.1784C322.906 23.2739 318.169 23.2739 315.109 26.1784C315.04 26.2466 315.001 26.3401 315 26.4382C314.999 26.5362 315.037 26.6305 315.105 26.7L316.39 28.0255C316.522 28.1609 316.736 28.1638 316.872 28.032C317.876 27.1041 319.182 26.5899 320.536 26.5894ZM323.15 29.1767C323.152 29.275 323.114 29.3698 323.045 29.4386L320.822 31.7289C320.756 31.7962 320.668 31.834 320.575 31.834C320.482 31.834 320.393 31.7962 320.328 31.7289L318.105 29.4386C318.036 29.3697 317.998 29.2749 318 29.1766C318.002 29.0783 318.044 28.9853 318.115 28.9194C319.535 27.6935 321.615 27.6935 323.035 28.9194C323.106 28.9853 323.148 29.0784 323.15 29.1767Z" fill="black"/>
<path d="M296 23C296 22.4477 296.448 22 297 22H298C298.552 22 299 22.4477 299 23V31C299 31.5523 298.552 32 298 32H297C296.448 32 296 31.5523 296 31V23Z" fill="black"/>
<path d="M301 21C301 20.4477 301.448 20 302 20H303C303.552 20 304 20.4477 304 21V31C304 31.5523 303.552 32 303 32H302C301.448 32 301 31.5523 301 31V21Z" fill="black"/>
<path d="M291 26.5C291 25.9477 291.448 25.5 292 25.5H293C293.552 25.5 294 25.9477 294 26.5V31C294 31.5523 293.552 32 293 32H292C291.448 32 291 31.5523 291 31V26.5Z" fill="black"/>
<path d="M286 29C286 28.4477 286.448 28 287 28H288C288.552 28 289 28.4477 289 29V31C289 31.5523 288.552 32 288 32H287C286.448 32 286 31.5523 286 31V29Z" fill="black"/>
</svg>
